<svg id="Capa_1" enable-background="new 0 0 512 512" height="512" viewBox="0 0 512 512" width="512" xmlns="http://www.w3.org/2000/svg"><g><path d="m455.91 512h-333.218c-5.69 0-10.302-4.612-10.302-10.302v-423.754c0-5.69 4.612-10.302 10.302-10.302h333.218c5.69 0 10.302 4.612 10.302 10.302v423.754c-.001 5.69-4.613 10.302-10.302 10.302z" fill="#7398d3"/><path d="m422.609 477.659h-333.218c-5.69 0-10.302-4.612-10.302-10.302v-423.754c0-5.69 4.612-10.302 10.302-10.302h333.218c5.69 0 10.302 4.612 10.302 10.302v423.754c0 5.689-4.613 10.302-10.302 10.302z" fill="#a2b9e2"/><path d="m389.308 444.358h-333.218c-5.69 0-10.302-4.612-10.302-10.302v-423.754c.001-5.69 4.613-10.302 10.302-10.302h333.218c5.69 0 10.302 4.612 10.302 10.302v423.754c0 5.689-4.613 10.302-10.302 10.302z" fill="#d8e2f1"/><path d="m378.797 0v444.358h10.511c5.69 0 10.302-4.612 10.302-10.302v-423.754c0-5.69-4.613-10.302-10.302-10.302z" fill="#b9cbea"/><path d="m189.398 31.818h-104.064c-4.267 0-7.726 3.459-7.726 7.726v143.61c0 4.267 3.459 7.726 7.726 7.726h104.065c4.267 0 7.726-3.459 7.726-7.726v-143.609c0-4.267-3.46-7.727-7.727-7.727z" fill="#dd5790"/><path d="m360.065 31.818h-133.203c-4.267 0-7.726 3.459-7.726 7.726v35.382c0 4.267 3.459 7.726 7.726 7.726h133.203c4.267 0 7.726-3.459 7.726-7.726v-35.381c0-4.267-3.459-7.727-7.726-7.727z" fill="#5766cb"/><g><path d="m360.065 120.117h-133.203c-4.267 0-7.726-3.459-7.726-7.726s3.459-7.726 7.726-7.726h133.203c4.267 0 7.726 3.459 7.726 7.726s-3.459 7.726-7.726 7.726z" fill="#a2b9e2"/></g><g><path d="m360.065 153.418h-133.203c-4.267 0-7.726-3.459-7.726-7.726s3.459-7.726 7.726-7.726h133.203c4.267 0 7.726 3.459 7.726 7.726s-3.459 7.726-7.726 7.726z" fill="#a2b9e2"/></g><g><path d="m360.065 190.881h-133.203c-4.267 0-7.726-3.459-7.726-7.726s3.459-7.726 7.726-7.726h133.203c4.267 0 7.726 3.459 7.726 7.726s-3.459 7.726-7.726 7.726z" fill="#a2b9e2"/></g><g><path d="m360.065 228.344h-195.642c-4.267 0-7.726-3.459-7.726-7.726s3.459-7.726 7.726-7.726h195.642c4.267 0 7.726 3.459 7.726 7.726s-3.459 7.726-7.726 7.726z" fill="#a2b9e2"/></g><g><path d="m126.959 228.344h-41.625c-4.267 0-7.726-3.459-7.726-7.726s3.459-7.726 7.726-7.726h41.626c4.267 0 7.726 3.459 7.726 7.726s-3.46 7.726-7.727 7.726z" fill="#a2b9e2"/></g><g><path d="m360.065 265.808h-195.642c-4.267 0-7.726-3.459-7.726-7.726s3.459-7.726 7.726-7.726h195.642c4.267 0 7.726 3.459 7.726 7.726s-3.459 7.726-7.726 7.726z" fill="#a2b9e2"/></g><g><path d="m126.959 265.808h-41.625c-4.267 0-7.726-3.459-7.726-7.726s3.459-7.726 7.726-7.726h41.626c4.267 0 7.726 3.459 7.726 7.726s-3.46 7.726-7.727 7.726z" fill="#a2b9e2"/></g><g><path d="m360.065 303.271h-195.642c-4.267 0-7.726-3.459-7.726-7.726s3.459-7.726 7.726-7.726h195.642c4.267 0 7.726 3.459 7.726 7.726s-3.459 7.726-7.726 7.726z" fill="#a2b9e2"/></g><g><path d="m126.959 303.271h-41.625c-4.267 0-7.726-3.459-7.726-7.726s3.459-7.726 7.726-7.726h41.626c4.267 0 7.726 3.459 7.726 7.726s-3.46 7.726-7.727 7.726z" fill="#a2b9e2"/></g><g><path d="m360.065 340.734h-195.642c-4.267 0-7.726-3.459-7.726-7.726s3.459-7.726 7.726-7.726h195.642c4.267 0 7.726 3.459 7.726 7.726s-3.459 7.726-7.726 7.726z" fill="#a2b9e2"/></g><g><path d="m126.959 340.734h-41.625c-4.267 0-7.726-3.459-7.726-7.726s3.459-7.726 7.726-7.726h41.626c4.267 0 7.726 3.459 7.726 7.726s-3.46 7.726-7.727 7.726z" fill="#a2b9e2"/></g><g><path d="m360.065 378.198h-195.642c-4.267 0-7.726-3.459-7.726-7.726s3.459-7.726 7.726-7.726h195.642c4.267 0 7.726 3.459 7.726 7.726 0 4.266-3.459 7.726-7.726 7.726z" fill="#a2b9e2"/></g><g><path d="m126.959 378.198h-41.625c-4.267 0-7.726-3.459-7.726-7.726s3.459-7.726 7.726-7.726h41.626c4.267 0 7.726 3.459 7.726 7.726 0 4.266-3.46 7.726-7.727 7.726z" fill="#a2b9e2"/></g></g></svg>